<?xml version="1.0" encoding="utf-8"?>
<!-- Generator: Adobe Illustrator 26.0.3, SVG Export Plug-In . SVG Version: 6.00 Build 0)  -->
<svg version="1.1" xmlns="http://www.w3.org/2000/svg" xmlns:xlink="http://www.w3.org/1999/xlink" x="0px" y="0px"
	 viewBox="0 0 1000 115.14" style="enable-background:new 0 0 1000 115.14;" xml:space="preserve">
<style type="text/css">
	.st0{display:none;}
	.st1{display:inline;fill:none;stroke:#000000;stroke-width:0.05;stroke-miterlimit:10;}
	.st2{display:inline;fill:none;}
	.st3{display:inline;}
	.st4{fill:none;stroke:#000000;stroke-width:15;stroke-miterlimit:10;}
	.st5{fill:none;stroke:#000000;stroke-width:15;stroke-linecap:round;stroke-miterlimit:10;}
</style>
<g id="Calque_1">
</g>
<g id="Calque_2" class="st0">
</g>
<g id="Calque_3">
</g>
<g id="Calque_4">
</g>
<g id="Calque_5" class="st0">
</g>
<g id="Calque_6">
	<g>
		<path d="M126.37,111.74c0,0.68-0.28,1.02-0.85,1.02c-2.27,0-5.78-0.11-10.54-0.34c-4.99-0.23-8.56-0.34-10.71-0.34
			c-2.84,0-6.29,0.11-10.37,0.34c-3.85,0.23-6.92,0.34-9.18,0.34c-0.45,0-0.68-0.34-0.68-1.02c0-0.68,0.23-1.02,0.68-1.02
			c2.95,0,5.07-0.31,6.38-0.93c1.3-0.62,1.96-1.73,1.96-3.32c0-1.93-1.13-5.16-3.4-9.69L78.08,73.83H36.25l-6.63,14.79
			c-1.47,3.29-2.21,6.35-2.21,9.18c0,4.08,1.45,7.26,4.34,9.52c2.89,2.27,6.77,3.4,11.65,3.4c0.57,0,0.85,0.34,0.85,1.02
			c0,0.68-0.28,1.02-0.85,1.02c-2.04,0-4.99-0.11-8.84-0.34c-4.31-0.23-8.05-0.34-11.22-0.34c-3.06,0-6.75,0.11-11.05,0.34
			c-3.85,0.23-6.97,0.34-9.35,0.34c-0.45,0-0.68-0.34-0.68-1.02c0-0.68,0.23-1.02,0.68-1.02c3.17,0,5.84-0.65,7.99-1.96
			c2.15-1.3,4.31-3.63,6.46-6.97c2.15-3.34,4.7-8.3,7.65-14.88l36.9-81.1c0.23-0.34,0.74-0.51,1.53-0.51c0.91,0,1.42,0.17,1.53,0.51
			l42.51,83.65c3.97,8.05,7.25,13.6,9.86,16.66c2.61,3.06,5.33,4.59,8.16,4.59C126.08,110.72,126.37,111.06,126.37,111.74z
			 M38.46,69.07h37.07L55.97,30.3L38.46,69.07z"/>
		<path d="M212.32,13.81c-2.78-3.51-6.66-5.27-11.65-5.27c-0.23,0-0.34-0.34-0.34-1.02s0.11-1.02,0.34-1.02l8.16,0.17
			C213.14,6.89,216.6,7,219.2,7c2.15,0,5.27-0.11,9.35-0.34l7.82-0.17c0.23,0,0.34,0.34,0.34,1.02s-0.11,1.02-0.34,1.02
			c-4.42,0-7.88,1.76-10.37,5.27c-2.49,3.52-3.74,8.33-3.74,14.45v47.27c0,7.94-1.76,14.91-5.27,20.91
			c-3.51,6.01-8.47,10.63-14.88,13.86c-6.41,3.23-13.8,4.85-22.19,4.85c-8.39,0-15.81-1.59-22.27-4.76
			c-6.46-3.17-11.54-7.79-15.22-13.86c-3.68-6.06-5.53-13.18-5.53-21.34V20.27c0-3.4-0.31-5.89-0.93-7.48
			c-0.62-1.59-1.76-2.69-3.4-3.32c-1.64-0.62-4.22-0.93-7.74-0.93c-0.34,0-0.51-0.34-0.51-1.02s0.17-1.02,0.51-1.02l9.01,0.17
			C139.06,6.89,143.2,7,146.26,7c3.4,0,7.71-0.11,12.92-0.34l8.67-0.17c0.34,0,0.51,0.34,0.51,1.02s-0.17,1.02-0.51,1.02
			c-3.52,0-6.09,0.34-7.74,1.02c-1.64,0.68-2.78,1.84-3.4,3.49c-0.62,1.64-0.94,4.17-0.94,7.57v48.63c0,13.49,2.66,23.46,7.99,29.93
			c5.33,6.46,12.86,9.69,22.61,9.69c9.41,0,16.77-2.86,22.1-8.59c5.33-5.72,7.99-13.91,7.99-24.57V28.26
			C216.48,22.14,215.09,17.32,212.32,13.81z"/>
		<path d="M247.6,36.76c-0.11,0.34-0.45,0.48-1.02,0.43c-0.57-0.06-0.85-0.25-0.85-0.59c0.45-4.53,0.96-10.4,1.53-17.6
			c0.57-7.2,0.85-12.61,0.85-16.24c0-0.57,0.31-0.85,0.94-0.85c0.62,0,0.93,0.28,0.93,0.85c0,2.49,3.23,3.74,9.69,3.74
			C269.42,6.83,280.81,7,293.85,7c6.69,0,13.77-0.11,21.25-0.34l11.56-0.17c4.31,0,7.45-0.28,9.44-0.85c1.98-0.57,3.26-1.7,3.83-3.4
			c0.11-0.45,0.48-0.68,1.11-0.68c0.62,0,0.94,0.23,0.94,0.68c-0.34,3.4-0.71,8.84-1.11,16.32c-0.4,7.48-0.6,13.49-0.6,18.02
			c0,0.34-0.28,0.51-0.85,0.51c-0.57,0-0.91-0.17-1.02-0.51c-1.7-8.73-4.88-15.27-9.52-19.64c-4.65-4.36-10.37-6.55-17.17-6.55
			c-3.29,0-5.47,0.71-6.55,2.13c-1.08,1.42-1.62,4.11-1.62,8.08v78.38c0,3.52,0.34,6.07,1.02,7.65c0.68,1.59,1.98,2.67,3.91,3.23
			c1.93,0.57,4.99,0.85,9.18,0.85c0.34,0,0.51,0.34,0.51,1.02c0,0.68-0.17,1.02-0.51,1.02c-4.08,0-7.31-0.06-9.69-0.17l-14.11-0.17
			l-13.77,0.17c-2.38,0.11-5.67,0.17-9.86,0.17c-0.34,0-0.51-0.34-0.51-1.02c0-0.68,0.17-1.02,0.51-1.02c4.08,0,7.11-0.28,9.1-0.85
			c1.98-0.57,3.34-1.67,4.08-3.32c0.74-1.64,1.11-4.17,1.11-7.57V20.27c0-3.85-0.51-6.46-1.53-7.82s-3.12-2.04-6.29-2.04
			C263.18,10.4,253.49,19.19,247.6,36.76z"/>
		<path d="M547.86,30.64c0,0.23-0.31,0.4-0.93,0.51c-0.62,0.11-0.99,0-1.11-0.34c-1.81-6.57-4.88-11.45-9.18-14.62
			c-4.31-3.17-9.98-4.76-17-4.76h-5.1c-3.4,0-5.89,0.74-7.48,2.21c-1.59,1.47-2.38,3.74-2.38,6.8v36.73h12.24
			c6.57,0,11.59-1.16,15.05-3.49c3.46-2.32,5.19-5.53,5.19-9.61c0-0.23,0.34-0.34,1.02-0.34s1.02,0.11,1.02,0.34l-0.17,15.47
			c0,3.63,0.06,6.35,0.17,8.16l0.17,9.01c0,0.34-0.34,0.51-1.02,0.51c-0.68,0-1.02-0.17-1.02-0.51c0-4.53-1.78-8.13-5.36-10.8
			c-3.57-2.66-8.64-4-15.22-4h-12.07v36.39c0,3.52,0.45,6.12,1.36,7.82c0.91,1.7,2.61,2.89,5.1,3.57c2.49,0.68,6.4,1.02,11.73,1.02
			c0.23,0,0.34,0.34,0.34,1.02c0,0.68-0.11,1.02-0.34,1.02c-4.65,0-8.28-0.06-10.88-0.17l-17.34-0.17l-12.75,0.17
			c-2.27,0.11-5.39,0.17-9.35,0.17c-0.34,0-0.51-0.34-0.51-1.02c0-0.68,0.17-1.02,0.51-1.02c3.97,0,6.86-0.28,8.67-0.85
			c1.81-0.57,3.03-1.67,3.66-3.32c0.62-1.64,0.93-4.17,0.93-7.57V20.27c0-3.4-0.28-5.89-0.85-7.48c-0.57-1.59-1.7-2.69-3.4-3.32
			c-1.7-0.62-4.31-0.93-7.82-0.93c-0.34,0-0.51-0.34-0.51-1.02s0.17-1.02,0.51-1.02h72.09c1.13,0,1.7,0.51,1.7,1.53L547.86,30.64z"
			/>
		<path d="M589.6,107.41c-8.22-4.93-14.57-11.62-19.04-20.06c-4.48-8.44-6.71-17.65-6.71-27.63c0-11.67,2.95-21.68,8.84-30.01
			c5.89-8.33,13.46-14.59,22.7-18.79c9.24-4.19,18.67-6.29,28.31-6.29c10.77,0,20.23,2.52,28.4,7.57
			c8.16,5.05,14.42,11.71,18.79,19.98c4.36,8.28,6.55,17.06,6.55,26.35c0,10.32-2.72,19.78-8.16,28.39
			c-5.44,8.62-12.73,15.42-21.85,20.4c-9.13,4.99-19.02,7.48-29.67,7.48C607.2,114.8,597.82,112.34,589.6,107.41z M640.44,105.03
			c5.04-3.68,8.98-9.07,11.82-16.15c2.83-7.08,4.25-15.56,4.25-25.42c0-10.43-1.59-19.75-4.76-27.97
			c-3.17-8.22-7.76-14.65-13.77-19.3c-6.01-4.65-13.04-6.97-21.08-6.97c-10.31,0-18.25,3.88-23.8,11.65
			c-5.55,7.77-8.33,18.62-8.33,32.56c0,11,1.67,20.83,5.02,29.5c3.34,8.67,7.93,15.45,13.77,20.32c5.84,4.88,12.44,7.31,19.81,7.31
			C629.7,110.55,635.39,108.71,640.44,105.03z"/>
		<path d="M774.59,5.9c5.5,0.85,9.89,1.96,13.18,3.32c1.02,0.34,1.67,0.76,1.96,1.28c0.28,0.51,0.48,1.39,0.59,2.64l2.21,23.63
			c0,0.34-0.28,0.57-0.85,0.68c-0.57,0.11-0.96-0.06-1.19-0.51c-3.17-9.29-7.71-16.41-13.6-21.34c-5.89-4.93-12.98-7.4-21.25-7.4
			c-7.71,0-14.6,2.07-20.66,6.21c-6.07,4.14-10.83,10.06-14.28,17.77c-3.46,7.71-5.19,16.72-5.19,27.03
			c0,10.43,1.78,19.58,5.36,27.46c3.57,7.88,8.5,13.94,14.79,18.19c6.29,4.25,13.52,6.38,21.68,6.38c7.82,0,14.39-2.13,19.72-6.38
			c5.33-4.25,10.37-11.25,15.13-21c0.11-0.34,0.45-0.45,1.02-0.34c0.57,0.11,0.85,0.34,0.85,0.68l-2.55,21.08
			c-0.23,1.36-0.45,2.24-0.68,2.64c-0.23,0.4-0.85,0.82-1.87,1.28c-10.43,3.74-20.97,5.61-31.63,5.61c-12.13,0-22.98-2.3-32.56-6.89
			c-9.58-4.59-17.09-11.02-22.53-19.3c-5.44-8.27-8.16-17.68-8.16-28.22c0-10.77,2.8-20.37,8.42-28.82
			c5.61-8.44,13.32-15.05,23.13-19.81c9.8-4.76,20.71-7.14,32.73-7.14C763.68,4.62,769.09,5.05,774.59,5.9z"/>
		<path d="M894.46,13.81c-2.78-3.51-6.66-5.27-11.65-5.27c-0.23,0-0.34-0.34-0.34-1.02s0.11-1.02,0.34-1.02l8.16,0.17
			C895.28,6.89,898.74,7,901.35,7c2.15,0,5.27-0.11,9.35-0.34l7.82-0.17c0.23,0,0.34,0.34,0.34,1.02s-0.11,1.02-0.34,1.02
			c-4.42,0-7.88,1.76-10.37,5.27c-2.5,3.52-3.74,8.33-3.74,14.45v47.27c0,7.94-1.76,14.91-5.27,20.91
			c-3.52,6.01-8.47,10.63-14.88,13.86c-6.41,3.23-13.8,4.85-22.19,4.85s-15.81-1.59-22.27-4.76c-6.46-3.17-11.54-7.79-15.22-13.86
			c-3.68-6.06-5.53-13.18-5.53-21.34V20.27c0-3.4-0.31-5.89-0.93-7.48c-0.62-1.59-1.76-2.69-3.4-3.32
			c-1.64-0.62-4.22-0.93-7.74-0.93c-0.34,0-0.51-0.34-0.51-1.02s0.17-1.02,0.51-1.02l9.01,0.17C821.21,6.89,825.34,7,828.4,7
			c3.4,0,7.71-0.11,12.92-0.34L850,6.49c0.34,0,0.51,0.34,0.51,1.02s-0.17,1.02-0.51,1.02c-3.52,0-6.09,0.34-7.74,1.02
			c-1.65,0.68-2.78,1.84-3.4,3.49c-0.62,1.64-0.93,4.17-0.93,7.57v48.63c0,13.49,2.66,23.46,7.99,29.93
			c5.33,6.46,12.87,9.69,22.62,9.69c9.41,0,16.77-2.86,22.1-8.59c5.33-5.72,7.99-13.91,7.99-24.57V28.26
			C898.63,22.14,897.24,17.32,894.46,13.81z"/>
		<path d="M951.76,34.55c2.1,3.17,4.68,5.95,7.74,8.33c3.06,2.38,7.2,5.27,12.41,8.67c5.67,3.63,10.2,6.8,13.6,9.52
			c3.4,2.72,6.29,6.04,8.67,9.95c2.38,3.91,3.57,8.42,3.57,13.52c0,5.9-1.59,11.14-4.76,15.73c-3.17,4.59-7.57,8.16-13.18,10.71
			c-5.61,2.55-11.88,3.83-18.79,3.83c-5.1,0-10.43-0.71-15.98-2.13c-5.55-1.42-9.3-2.98-11.22-4.68c-0.57-0.45-0.99-0.88-1.28-1.28
			c-0.28-0.4-0.43-1.05-0.43-1.96l-0.51-27.03v-0.17c0-0.45,0.28-0.71,0.85-0.76c0.56-0.06,0.9,0.14,1.02,0.6
			c3.4,6.91,6.38,12.53,8.93,16.83c2.55,4.31,5.78,8.11,9.69,11.39c3.91,3.29,8.36,4.93,13.35,4.93c4.53,0,8.27-1.22,11.22-3.66
			c2.95-2.44,4.42-6.6,4.42-12.5c0-4.99-1.11-9.35-3.32-13.09c-2.21-3.74-4.9-6.91-8.08-9.52c-3.17-2.61-7.54-5.72-13.09-9.35
			c-5.44-3.51-9.66-6.52-12.67-9.01c-3.01-2.49-5.59-5.5-7.74-9.01c-2.15-3.51-3.23-7.65-3.23-12.41c0-6.01,1.73-11.08,5.19-15.22
			c3.46-4.14,7.91-7.2,13.35-9.18c5.44-1.98,11.16-2.98,17.17-2.98c3.97,0,7.99,0.37,12.07,1.11c4.08,0.74,7.37,1.62,9.86,2.64
			c1.02,0.45,1.7,0.93,2.04,1.45c0.34,0.51,0.51,1.16,0.51,1.96v24.99c0,0.34-0.28,0.6-0.85,0.77c-0.57,0.17-0.91,0.08-1.02-0.25
			l-1.36-3.23c-2.83-7.14-6.15-13.2-9.95-18.19c-3.8-4.99-9.1-7.48-15.9-7.48c-4.53,0-8.25,1.3-11.14,3.91
			c-2.89,2.61-4.34,6.41-4.34,11.39C948.62,27.75,949.66,31.38,951.76,34.55z"/>
		<g>
			<path d="M391.23,105.21c-14.74-4.25-26.53-15.55-31.47-29.99c7.35-12.69,19.12-20.63,24.03-23.56l0.02,19.23
				C383.75,71.65,382.83,88.84,391.23,105.21z"/>
			<path d="M451.28,60.04c0,11.83-4.38,22.66-11.62,30.93c-14.65-0.03-27.42-6.25-32.4-9.05l16.64-9.61
				c0.69-0.33,16.04-8.15,26.02-23.56C450.8,52.36,451.28,56.14,451.28,60.04z"/>
			<path d="M448.75,44.83c-7.35,12.68-19.11,20.63-24.02,23.56V49.17c0.05-0.77,0.95-17.93-7.39-34.28
				C432.05,19.15,443.81,30.41,448.75,44.83z"/>
			<g>
				<path d="M421.74,46.47l-16.64-9.61c-0.65-0.42-15.04-9.79-33.37-10.72c8.45-8.12,19.92-13.11,32.54-13.11
					c3.12,0,6.17,0.3,9.11,0.89C420.68,26.61,421.66,40.75,421.74,46.47z"/>
				<path d="M401.29,38.12l-16.65,9.61c-0.69,0.35-16.04,8.15-26.02,23.58c-0.9-3.61-1.37-7.38-1.37-11.26
					c0-11.85,4.41-22.69,11.68-30.97C383.57,29.11,396.31,35.32,401.29,38.12z"/>
				<path d="M436.84,93.89c-8.46,8.16-19.92,13.17-32.57,13.17c-3.1,0-6.14-0.3-9.08-0.89c-7.35-12.72-8.33-26.91-8.4-32.61
					l16.64,9.61C404.09,83.6,418.48,92.97,436.84,93.89z"/>
				<g>
					<path d="M404.26,10.26c27.5,0,49.8,22.3,49.8,49.8s-22.3,49.8-49.8,49.8c-27.5,0-49.8-22.3-49.8-49.8
						S376.76,10.26,404.26,10.26 M404.26,7.26c-29.11,0-52.8,23.68-52.8,52.8s23.68,52.8,52.8,52.8c29.11,0,52.8-23.68,52.8-52.8
						S433.37,7.26,404.26,7.26L404.26,7.26z"/>
				</g>
			</g>
		</g>
	</g>
</g>
<g id="Calque_7">
</g>
</svg>
